<svg width="100" height="100"><path d="M93.802 56.733v-15H77.729a29.602 29.602 0 0 0-3.18-7.643l11.37-11.37-10.605-10.612-11.362 11.37a29.872 29.872 0 0 0-7.65-3.18V4.233h-15v16.065a29.891 29.891 0 0 0-7.65 3.187L22.289 12.108 11.684 22.713l11.363 11.37c-1.388 2.37-2.475 4.92-3.173 7.65H3.802v15h16.072a29.602 29.602 0 0 0 3.18 7.642l-11.37 11.378L22.29 86.358l11.37-11.37a29.935 29.935 0 0 0 7.65 3.187v16.058h15V78.168a30.16 30.16 0 0 0 7.65-3.188l11.37 11.37 10.605-10.605-11.37-11.377a29.493 29.493 0 0 0 3.18-7.643h16.058zm-45 7.5c-8.28 0-15-6.728-15-15 0-8.265 6.72-15 15-15 8.28 0 15 6.735 15 15s-6.72 15-15 15z"/></svg>