<svg width="100" height="100">
  <path d="m 93.801844,56.732717 v -15 h -16.0725 c -0.705,-2.7225 -1.785,-5.28 -3.18,-7.6425 l 11.37,-11.37 -10.605,-10.6125 -11.3625,11.37 c -2.3775,-1.395 -4.9275,-2.475 -7.65,-3.18 V 4.2327172 h -15 V 20.297717 c -2.7225,0.7125 -5.2725,1.785 -7.65,3.1875 l -11.362499,-11.3775 -10.605001,10.605 11.362501,11.37 c -1.3875,2.37 -2.475,4.92 -3.1725,7.65 H 3.8018443 v 15 H 19.874345 c 0.705,2.7225 1.785,5.28 3.18,7.6425 l -11.370001,11.3775 10.605001,10.605 11.369999,-11.37 c 2.37,1.395 4.92,2.475 7.65,3.1875 v 16.057501 h 15 V 78.167717 c 2.7225,-0.7125 5.2725,-1.7925 7.65,-3.1875 l 11.37,11.37 10.605,-10.605 -11.37,-11.3775 c 1.395,-2.3625 2.475,-4.9125 3.18,-7.6425 h 16.0575 z m -45,7.5 c -8.28,0 -15,-6.7275 -15,-15 0,-8.265 6.72,-15 15,-15 8.28,0 15,6.735 15,15 0,8.265 -6.72,15 -15,15 z"/>
</svg>
